<svg xmlns="http://www.w3.org/2000/svg" viewBox="442 -10 160 160">
  <defs>
    <style>
      .cls-1 { fill: #47c7f2; }
      .cls-3 { fill: #53c0b0; }
    </style>
  </defs>
  <g id="Favicon_Original">
    <path class="cls-1" d="M565.07,15.86c.88-4.8,1.56-9.65,1.89-14.52,0-.02-.02-.04-.03-.05-.06-.07-.12-.13-.19-.19-.05-.02-.1-.04-.14-.06-.07-.02-.15-.04-.22-.05-.21-.07-.41-.17-.61-.24-.17-.06-.35-.11-.53-.16,0,0-.02,0-.03,0-.09-.02-.17-.03-.26-.05-.85-.14-1.71-.25-2.56-.34-.41-.04-.81-.08-1.22-.11-.18-.01-.37-.02-.55-.04-.06,0-.12,0-.18,0-.79-.03-1.58-.05-2.38-.05-1.6,0-3.21.06-4.81.14-.39.02-.78.05-1.17.07-.1,0-.19.02-.29.02-.05,0-.08,0-.1,0-.09.01-.18.02-.27.03-.82.09-1.64.2-2.44.35-.02,0-.05,0-.08.02,0,0,0,0,0,0-.2.05-.39.1-.58.15l-.78.2c-.02.16-.02.33-.03.5-.02.32-.05.64-.07.97-.05.59-.1,1.19-.16,1.78-.11,1.19-.25,2.37-.4,3.55-1.09,8.5-2.99,16.89-5.18,25.17.02.1.05.2.07.3,0,.02.01.05.02.07.17.52.27,1.06.41,1.59.29,1.12.58,2.25.87,3.37.88,3.4,1.76,6.81,2.64,10.21,1.02,3.95,2.04,7.9,3.06,11.85.55,2.12,1.1,4.24,1.64,6.36.91-2.46,1.79-4.93,2.65-7.41,1.65-4.74,3.21-9.52,4.68-14.32,1.46-4.77,2.82-9.57,4.05-14.41,1.24-4.87,2.36-9.77,3.26-14.71Z"/>
    <path class="cls-1" d="M560.55.05c-.13,0-.08,0,0,0h0Z"/>
    <path class="cls-1" d="M560.75.06s-.05,0-.07,0c.03,0,.06,0,.07,0Z"/>
    <path class="cls-1" d="M501.98,118.17c4.36-.07,8.71-.4,13.02-1.1,1.91-.35,3.79-.83,5.61-1.48,1.45-.56,2.85-1.22,4.19-2.01,1.3-.82,2.52-1.76,3.65-2.79,1.91-1.83,3.55-3.9,5.02-6.09-.41-1-.78-2.03-1.17-3.04-.93-2.39-1.86-4.78-2.79-7.17-1.08-2.76-2.15-5.53-3.23-8.29-.46-1.18-.91-2.35-1.37-3.53-.47,1.14-.94,2.28-1.42,3.41-1.26,2.99-2.55,5.96-3.9,8.91-1.27,2.79-2.59,5.56-4.13,8.22-1.53,2.65-3.25,5.19-5.36,7.42-1.06,1.12-2.2,2.19-3.41,3.15-.54.43-1.09.84-1.67,1.21-3.97,2.57-7.52,3.14-7.52,3.14.31.01.62.02.93.03,1.18.02,2.36.02,3.55,0Z"/>
    <path class="cls-1" d="M551.06,118.96c.06.02.11.04.17.06.01,0,.04,0,.06.01.77-.42,1.52-.86,2.26-1.31,1.15-.7,3.33-1.46,6.25-4.54.69-.73,1.21-1.46,1.61-2.2-.18-.31-.35-.62-.52-.92-1.86-3.36-3.39-6.89-4.91-10.41-1.54-3.57-3.01-7.18-4.39-10.82-1.38-3.62-2.67-7.27-3.88-10.95-.24-.72-.46-1.42-.65-2.15-.57-2.19-1.13-4.38-1.7-6.57-.91-3.52-1.82-7.05-2.73-10.57-.98-3.79-1.96-7.59-2.94-11.38-.76-2.94-1.52-5.88-2.28-8.82-.46-1.79-.9-3.58-1.33-5.38-.83-3.42-1.82-6.82-3.3-10.03-.17-.37-.35-.74-.54-1.11-.08-.16-.16-.31-.24-.47-.1-.19-.04-.08-.18-.33-.37-.67-.76-1.32-1.18-1.96-.83-1.27-1.75-2.48-2.77-3.6-.53-.58-1.08-1.13-1.67-1.66-.28-.25-.57-.5-.86-.74-.01-.01-.02-.02-.03-.03,0,0-.01,0-.02-.02-.07-.05-.14-.11-.21-.16-.14-.11-.28-.21-.42-.31-1.34-.97-2.8-1.76-4.32-2.41-.13-.05-.26-.11-.38-.16-.02,0-.03-.01-.04-.02-.18-.07-.36-.14-.54-.2-.42-.15-.85-.29-1.29-.41-.9-.25-1.81-.44-2.73-.61-.25-.05-.51-.09-.76-.14-.15-.03-.29-.05-.44-.07,0,0-.08-.01-.14-.02-.06,0-.14-.02-.15-.02-.11-.02-.22-.03-.33-.05-.22-.03-.44-.06-.66-.09-.99-.13-1.98-.22-2.97-.3-1.91-.14-3.83-.19-5.74-.17-.12,0-.63.01-.61.01-.17,0-.33.01-.5.02-.47.02-.94.04-1.41.06-.94.05-1.88.11-2.81.18-1.26.1-3.76.4-3.76.4,0,0,6.6.7,14.7,10.65,8.09,9.95,22.23,67.04,23.48,70.25,1.28,3.29,2.56,6.58,3.84,9.86.65,1.67,1.25,3.36,1.95,5.01.5,1.17,1.12,2.3,1.71,3.42.58,1.11,1.42,2.54,2.23,3.73.85,1.25,1.78,2.44,2.82,3.53.54.57,1.1,1.11,1.69,1.61.09.08.18.15.28.23,0,0,.07.06.12.09.06.04.25.19.31.23.29.21.58.42.89.61.63.41,1.29.76,1.97,1.1Z"/>

    <path class="cls-3" d="M478.53,98.77c-4.8-6.67-8.22-14.34-9.87-22.39-1.76-8.62-1.45-17.65.88-26.13,2.27-8.29,6.38-16.16,11.88-22.77,4.46-5.37,7.9-8.58,13.54-12.11-3.26-3.18-6.09-4.87-8.09-5.76-.04.01-.09.03-.13.04-.15.05-.2.06-.21.06-.48.16-.96.37-1.43.56-1.16.48-2.31.99-3.44,1.54-.32.15-.64.31-.96.47-.15.08-.85.38-.28.14-.53.22-1.03.56-1.53.84-2.06,1.17-4.04,2.47-5.94,3.88-.16.12-.31.23-.47.35,0,0,0,0-.01.01-.02.01-.04.03-.06.05-.2.16-.41.32-.61.48-.46.36-.91.73-1.36,1.11-.89.75-1.76,1.52-2.62,2.32-1.75,1.64-3.41,3.37-4.97,5.18-.06.07-.22.26-.22.26-.08.1-.17.2-.25.3-.19.23-.38.46-.56.69-.37.46-.74.92-1.09,1.39-.74.97-1.45,1.95-2.13,2.95-1.35,1.98-2.59,4.03-3.71,6.14-2.3,4.32-4.05,8.87-5.21,13.68-2.39,9.93-1.86,20.35,1.36,30.03,3,9.01,8.27,17.21,15.19,23.72,3.38,3.18,6.93,5.74,11.13,7.82,1.07.53,2.17,1.02,3.28,1.47.5.2,1.01.39,1.52.58.07.02.18.06.22.08.12.04.24.08.36.12.27.09.54.18.81.26,1.82.58,3.67,1.04,5.55,1.4,1.39-.46,3.27-1.25,5.27-2.54.5-.32.97-.67,1.44-1.04-6.79-3.59-12.79-8.98-17.26-15.19Z"/>
    <path class="cls-3" d="M590.02,88.81s0,0,.01,0c.04,0,.08.02.12.02-.04,0-.09-.02-.13-.03Z"/>
    <path class="cls-3" d="M561.64,117.72s-2.98,1.76-4.56,2.45c2.37.33,4.76.45,7.15.46,3.73,0,7.49-.14,11.17-.76,1.44-.27,2.86-.63,4.24-1.11.94-.35,1.85-.76,2.73-1.24.67-.41,1.31-.88,1.92-1.38.97-.88,1.84-1.86,2.61-2.91,1.08-1.58,1.95-3.3,2.58-5.11,1.16-3.65,1.36-7.51,1.17-11.32-.08-1.3-.19-2.59-.33-3.88-.08-.74-.17-1.48-.26-2.22-.04-.36-.09-.72-.14-1.09-.02-.18-.05-.36-.07-.54-.01-.1-.02-.2-.03-.3-.1-.03-.21-.06-.31-.1-.14-.06-.28-.11-.43-.16-.22-.07-.44-.13-.67-.19-.51-.08-1.03-.14-1.54-.21-.6-.08-1.2-.14-1.81-.19-1.15-.09-2.3-.13-3.45-.14-1.49,0-2.98.05-4.47.13-1.5.08-3,.2-4.48.44-.71.14-1.41.32-2.11.49.19,1.5.37,3,.51,4.5.32,3.4.47,6.84.05,10.24-.41,3.37-.29,6.54-3.21,9.62-2.92,3.08-6.25,4.54-6.25,4.54Z"/>
    <path class="cls-3" d="M589.25,72.62s.02-.03.03-.04c0,0,0,0-.01,0,0,.01-.02.02-.02.03Z"/>
    <path class="cls-3" d="M592.83,69.52c-.1-1.5-.48-3.01-1.14-4.36-.73-1.34-1.67-2.54-2.81-3.55-1.09-.89-2.29-1.65-3.58-2.23-1.02-.41-2.05-.73-3.13-.95-.79-.13-1.59-.19-2.39-.2-.73.03-1.46.11-2.18.22-.54.11-1.07.26-1.59.43-.73.28-1.45.6-2.14.97-.64.38-1.25.8-1.83,1.27-.86.76-1.65,1.6-2.35,2.51-.68.96-1.25,1.99-1.67,3.09-.51,1.5-.81,3.08-.77,4.67.1,1.54.5,3.07,1.18,4.45.73,1.33,1.69,2.51,2.83,3.52,1.08.87,2.26,1.6,3.52,2.17,1.01.41,2.04.73,3.11.95.8.13,1.62.2,2.43.21.71-.03,1.42-.1,2.12-.21.57-.12,1.12-.27,1.67-.45.71-.27,1.41-.58,2.08-.94.63-.38,1.24-.8,1.82-1.26.49-.44.94-.91,1.42-1.35.01-.02.02-.03.03-.05-.01.01-.03.02-.04.04.03-.03.05-.06.08-.08.04-.05.08-.11.13-.16.26-.29.5-.58.73-.88.71-.99,1.29-2.06,1.73-3.2.5-1.48.78-3.04.75-4.6Z"/>
  </g>
</svg>