<svg id="Layer_2" data-name="Layer 2" xmlns="http://www.w3.org/2000/svg" viewBox="0 0 1041.03 442.42">
  <defs>
    <style>
      .cls-1 {
        fill: #47c7f2;
      }

      .cls-2 {
        fill: #113953;
      }

      .cls-3 {
        fill: #53c0b0;
      }

      .cls-4 {
        fill: #93d3c6;
      }
    </style>
  </defs>
  <g id="Layer_1-2" data-name="Layer 1">
    <g>
      <g>
        <path class="cls-4" d="M904.02,332.06c0-10.58-7.7-17.44-17.92-17.44-10.05,0-17.89,6.86-17.89,17.44,0,10.27,7.84,17.59,17.89,17.59,10.23,0,17.92-7.32,17.92-17.59Z"/>
        <path class="cls-2" d="M970.68,337.35v10.89s27.8,0,27.8,0v-46.85c0-26.77-15.87-38.91-43.48-38.91-13.36,0-27.8,3.43-37.55,9.81l10.05,20.07c5.82-4.51,14.91-7.32,23.08-7.32,11.78,0,17.59,4.83,18.07,13.39h-16.97c-26.39,0-37.84,9.65-37.84,25.21,0,14.63,11.3,26,31.73,26,12.4,0,20.88-4.21,25.11-12.3ZM955.76,313.85h12.88s0,7.32,0,7.32c-2.36,6.68-8.17,9.8-14.76,9.8-7.07,0-11.15-3.58-11.15-8.56,0-5.14,3.46-8.56,13.03-8.56Z"/>
        <path class="cls-2" d="M1022.81,254.55c11,0,18.22-6.84,18.22-16.18,0-8.87-7.22-15.25-18.22-15.25-10.98,0-18.2,6.84-18.2,15.72,0,8.87,7.22,15.71,18.2,15.71Z"/>
        <rect class="cls-2" x="1007.89" y="263.89" width="29.85" height="84.36"/>
        <path class="cls-2" d="M248.6,308.24v-98.09s54.72,0,54.72,0v-23.89s-137.33,0-137.33,0v23.89s54.72,0,54.72,0v99.29c0,5.58.4,10.6,1.21,15.08.6,4.68,1.97,8.86,4.09,12.54,2.02,3.48,5,6.12,8.94,7.91,3.94,2.19,9.1,3.28,15.46,3.28,10.61,0,18.19-.5,22.74-1.49v-23.74c-3.34.99-7.68,1.49-13.04,1.49-7.88.2-11.72-5.23-11.52-16.28Z"/>
        <path class="cls-2" d="M128.99,186.1c-4.65,14.43-7.33,23.39-8.03,26.88-6.87-10.25-14.3-17.89-22.28-22.92-7.98-5.03-18.29-7.54-30.92-7.54-20.41,0-36.81,7.19-49.19,21.57C6.19,218.48,0,238.81,0,265.09c0,25.58,6.16,45.84,18.49,60.77,12.33,14.93,28.6,22.4,48.81,22.4,26.68,0,44.21-10.85,52.6-32.55,2.22,9.36,5.51,19.01,9.85,28.97h27.13c-5.96-14.43-12.48-40.86-19.55-79.28,5.96-30.96,12.48-57.38,19.55-79.28h-27.89ZM102.16,310.1c-8.39,10.7-18.85,16.05-31.38,16.05-12.83,0-22.84-5.42-30.01-16.28-7.17-10.85-10.76-25.78-10.76-44.79,0-19.51,3.79-34.44,11.37-44.79,7.58-10.35,17.89-15.53,30.92-15.53,12.63,0,22.86,4.98,30.69,14.93,7.83,9.96,11.75,24.69,11.75,44.19,0,20.11-4.2,35.51-12.58,46.21Z"/>
        <path class="cls-2" d="M667.76,221.4c1.76,4.72,2.66,12.46,2.66,23.21v99.89s27.12,0,27.12,0v-108.84c0-18.12-4.29-31.54-12.88-40.24-8.6-8.71-20.88-13.07-36.82-13.07-20.43,0-36.99,9.27-49.73,27.77-3.13-8.76-8.52-15.58-16.14-20.45-7.64-4.87-17.42-7.32-29.33-7.32-10.73,0-20.28,2.37-28.67,7.09-8.37,4.73-15.09,10.98-20.15,18.74v-22.24s-24.41,0-24.41,0v158.56s27.29,0,27.29,0v-82.27c0-14.42,1.46-25.48,4.39-33.14,2.93-7.66,7.67-13.49,14.19-17.48,6.52-3.97,13.61-5.96,21.3-5.96,10.1,0,17.37,2.98,21.8,8.95,4.46,5.98,6.69,14.93,6.69,26.88v103.02s27.27,0,27.27,0v-92.12c0-16.32,3.74-28.2,11.23-35.61,7.47-7.42,16.87-11.12,28.2-11.12,6.26,0,11.7,1.44,16.37,4.32,4.64,2.9,7.84,6.69,9.62,11.43Z"/>
        <path class="cls-2" d="M466.47,265.38c0-45.76-37.66-82.87-84.12-82.86-46.46,0-84.12,37.1-84.12,82.87,0,45.77,37.66,82.87,84.12,82.86,46.46,0,84.12-37.1,84.12-82.87ZM382.34,322.81c-32.23,0-58.46-25.76-58.46-57.43,0-31.67,26.23-57.43,58.46-57.43,32.23,0,58.46,25.76,58.46,57.43,0,31.67-26.23,57.43-58.46,57.43Z"/>
        <path class="cls-2" d="M879.28,265.38c0-45.76-37.66-82.87-84.12-82.86-46.46,0-84.12,37.1-84.12,82.87,0,45.77,37.66,82.87,84.12,82.86,46.46,0,84.12-37.1,84.12-82.87ZM795.15,322.81c-32.23,0-58.46-25.76-58.46-57.43,0-31.67,26.23-57.43,58.46-57.43,32.23,0,58.46,25.76,58.46,57.43,0,31.67-26.23,57.43-58.46,57.43Z"/>
      </g>
      <g>
        <g>
          <path class="cls-1" d="M565.07,15.86c.88-4.8,1.56-9.65,1.89-14.52,0-.02-.02-.04-.03-.05-.06-.07-.12-.13-.19-.19-.05-.02-.1-.04-.14-.06-.07-.02-.15-.04-.22-.05-.21-.07-.41-.17-.61-.24-.17-.06-.35-.11-.53-.16,0,0-.02,0-.03,0-.09-.02-.17-.03-.26-.05-.85-.14-1.71-.25-2.56-.34-.41-.04-.81-.08-1.22-.11-.18-.01-.37-.02-.55-.04-.06,0-.12,0-.18,0-.79-.03-1.58-.05-2.38-.05-1.6,0-3.21.06-4.81.14-.39.02-.78.05-1.17.07-.1,0-.19.02-.29.02-.05,0-.08,0-.1,0-.09.01-.18.02-.27.03-.82.09-1.64.2-2.44.35-.02,0-.05,0-.08.02,0,0,0,0,0,0-.2.05-.39.1-.58.15l-.78.2c-.02.16-.02.33-.03.5-.02.32-.05.64-.07.97-.05.59-.1,1.19-.16,1.78-.11,1.19-.25,2.37-.4,3.55-1.09,8.5-2.99,16.89-5.18,25.17.02.1.05.2.07.3,0,.02.01.05.02.07.17.52.27,1.06.41,1.59.29,1.12.58,2.25.87,3.37.88,3.4,1.76,6.81,2.64,10.21,1.02,3.95,2.04,7.9,3.06,11.85.55,2.12,1.1,4.24,1.64,6.36.91-2.46,1.79-4.93,2.65-7.41,1.65-4.74,3.21-9.52,4.68-14.32,1.46-4.77,2.82-9.57,4.05-14.41,1.24-4.87,2.36-9.77,3.26-14.71Z"/>
          <path class="cls-1" d="M560.55.05c-.13,0-.08,0,0,0h0Z"/>
          <path class="cls-1" d="M560.75.06s-.05,0-.07,0c.03,0,.06,0,.07,0Z"/>
        </g>
        <path class="cls-1" d="M501.98,118.17c4.36-.07,8.71-.4,13.02-1.1,1.91-.35,3.79-.83,5.61-1.48,1.45-.56,2.85-1.22,4.19-2.01,1.3-.82,2.52-1.76,3.65-2.79,1.91-1.83,3.55-3.9,5.02-6.09-.41-1-.78-2.03-1.17-3.04-.93-2.39-1.86-4.78-2.79-7.17-1.08-2.76-2.15-5.53-3.23-8.29-.46-1.18-.91-2.35-1.37-3.53-.47,1.14-.94,2.28-1.42,3.41-1.26,2.99-2.55,5.96-3.9,8.91-1.27,2.79-2.59,5.56-4.13,8.22-1.53,2.65-3.25,5.19-5.36,7.42-1.06,1.12-2.2,2.19-3.41,3.15-.54.43-1.09.84-1.67,1.21-3.97,2.57-7.52,3.14-7.52,3.14.31.01.62.02.93.03,1.18.02,2.36.02,3.55,0Z"/>
        <path class="cls-3" d="M478.53,98.77c-4.8-6.67-8.22-14.34-9.87-22.39-1.76-8.62-1.45-17.65.88-26.13,2.27-8.29,6.38-16.16,11.88-22.77,4.46-5.37,7.9-8.58,13.54-12.11-3.26-3.18-6.09-4.87-8.09-5.76-.04.01-.09.03-.13.04-.15.05-.2.06-.21.06-.48.16-.96.37-1.43.56-1.16.48-2.31.99-3.44,1.54-.32.15-.64.31-.96.47-.15.08-.85.38-.28.14-.53.22-1.03.56-1.53.84-2.06,1.17-4.04,2.47-5.94,3.88-.16.12-.31.23-.47.35,0,0,0,0-.01.01-.02.01-.04.03-.06.05-.2.16-.41.32-.61.48-.46.36-.91.73-1.36,1.11-.89.75-1.76,1.52-2.62,2.32-1.75,1.64-3.41,3.37-4.97,5.18-.06.07-.22.26-.22.26-.08.1-.17.2-.25.3-.19.23-.38.46-.56.69-.37.46-.74.92-1.09,1.39-.74.97-1.45,1.95-2.13,2.95-1.35,1.98-2.59,4.03-3.71,6.14-2.3,4.32-4.05,8.87-5.21,13.68-2.39,9.93-1.86,20.35,1.36,30.03,3,9.01,8.27,17.21,15.19,23.72,3.38,3.18,6.93,5.74,11.13,7.82,1.07.53,2.17,1.02,3.28,1.47.5.2,1.01.39,1.52.58.07.02.18.06.22.08.12.04.24.08.36.12.27.09.54.18.81.26,1.82.58,3.67,1.04,5.55,1.4,1.39-.46,3.27-1.25,5.27-2.54.5-.32.97-.67,1.44-1.04-6.79-3.59-12.79-8.98-17.26-15.19Z"/>
        <g>
          <path class="cls-3" d="M590.02,88.81s0,0,.01,0c.04,0,.08.02.12.02-.04,0-.09-.02-.13-.03Z"/>
          <path class="cls-3" d="M561.64,117.72s-2.98,1.76-4.56,2.45c2.37.33,4.76.45,7.15.46,3.73,0,7.49-.14,11.17-.76,1.44-.27,2.86-.63,4.24-1.11.94-.35,1.85-.76,2.73-1.24.67-.41,1.31-.88,1.92-1.38.97-.88,1.84-1.86,2.61-2.91,1.08-1.58,1.95-3.3,2.58-5.11,1.16-3.65,1.36-7.51,1.17-11.32-.08-1.3-.19-2.59-.33-3.88-.08-.74-.17-1.48-.26-2.22-.04-.36-.09-.72-.14-1.09-.02-.18-.05-.36-.07-.54-.01-.1-.02-.2-.03-.3-.1-.03-.21-.06-.31-.1-.14-.06-.28-.11-.43-.16-.22-.07-.44-.13-.67-.19-.51-.08-1.03-.14-1.54-.21-.6-.08-1.2-.14-1.81-.19-1.15-.09-2.3-.13-3.45-.14-1.49,0-2.98.05-4.47.13-1.5.08-3,.2-4.48.44-.71.14-1.41.32-2.11.49.19,1.5.37,3,.51,4.5.32,3.4.47,6.84.05,10.24-.41,3.37-.29,6.54-3.21,9.62-2.92,3.08-6.25,4.54-6.25,4.54Z"/>
        </g>
        <g>
          <path class="cls-3" d="M589.25,72.62s.02-.03.03-.04c0,0,0,0-.01,0,0,.01-.02.02-.02.03Z"/>
          <path class="cls-3" d="M592.83,69.52c-.1-1.5-.48-3.01-1.14-4.36-.73-1.34-1.67-2.54-2.81-3.55-1.09-.89-2.29-1.65-3.58-2.23-1.02-.41-2.05-.73-3.13-.95-.79-.13-1.59-.19-2.39-.2-.73.03-1.46.11-2.18.22-.54.11-1.07.26-1.59.43-.73.28-1.45.6-2.14.97-.64.38-1.25.8-1.83,1.27-.86.76-1.65,1.6-2.35,2.51-.68.96-1.25,1.99-1.67,3.09-.51,1.5-.81,3.08-.77,4.67.1,1.54.5,3.07,1.18,4.45.73,1.33,1.69,2.51,2.83,3.52,1.08.87,2.26,1.6,3.52,2.17,1.01.41,2.04.73,3.11.95.8.13,1.62.2,2.43.21.71-.03,1.42-.1,2.12-.21.57-.12,1.12-.27,1.67-.45.71-.27,1.41-.58,2.08-.94.63-.38,1.24-.8,1.82-1.26.49-.44.94-.91,1.42-1.35.01-.02.02-.03.03-.05-.01.01-.03.02-.04.04.03-.03.05-.06.08-.08.04-.05.08-.11.13-.16.26-.29.5-.58.73-.88.71-.99,1.29-2.06,1.73-3.2.5-1.48.78-3.04.75-4.6Z"/>
        </g>
        <path class="cls-1" d="M551.06,118.96c.06.02.11.04.17.06.01,0,.04,0,.06.01.77-.42,1.52-.86,2.26-1.31,1.15-.7,3.33-1.46,6.25-4.54.69-.73,1.21-1.46,1.61-2.2-.18-.31-.35-.62-.52-.92-1.86-3.36-3.39-6.89-4.91-10.41-1.54-3.57-3.01-7.18-4.39-10.82-1.38-3.62-2.67-7.27-3.88-10.95-.24-.72-.46-1.42-.65-2.15-.57-2.19-1.13-4.38-1.7-6.57-.91-3.52-1.82-7.05-2.73-10.57-.98-3.79-1.96-7.59-2.94-11.38-.76-2.94-1.52-5.88-2.28-8.82-.46-1.79-.9-3.58-1.33-5.38-.83-3.42-1.82-6.82-3.3-10.03-.17-.37-.35-.74-.54-1.11-.08-.16-.16-.31-.24-.47-.1-.19-.04-.08-.18-.33-.37-.67-.76-1.32-1.18-1.96-.83-1.27-1.75-2.48-2.77-3.6-.53-.58-1.08-1.13-1.67-1.66-.28-.25-.57-.5-.86-.74-.01-.01-.02-.02-.03-.03,0,0-.01,0-.02-.02-.07-.05-.14-.11-.21-.16-.14-.11-.28-.21-.42-.31-1.34-.97-2.8-1.76-4.32-2.41-.13-.05-.26-.11-.38-.16-.02,0-.03-.01-.04-.02-.18-.07-.36-.14-.54-.2-.42-.15-.85-.29-1.29-.41-.9-.25-1.81-.44-2.73-.61-.25-.05-.51-.09-.76-.14-.15-.03-.29-.05-.44-.07,0,0-.08-.01-.14-.02-.06,0-.14-.02-.15-.02-.11-.02-.22-.03-.33-.05-.22-.03-.44-.06-.66-.09-.99-.13-1.98-.22-2.97-.3-1.91-.14-3.83-.19-5.74-.17-.12,0-.63.01-.61.01-.17,0-.33.01-.5.02-.47.02-.94.04-1.41.06-.94.05-1.88.11-2.81.18-1.26.1-3.76.4-3.76.4,0,0,6.6.7,14.7,10.65,8.09,9.95,22.23,67.04,23.48,70.25,1.28,3.29,2.56,6.58,3.84,9.86.65,1.67,1.25,3.36,1.95,5.01.5,1.17,1.12,2.3,1.71,3.42.58,1.11,1.42,2.54,2.23,3.73.85,1.25,1.78,2.44,2.82,3.53.54.57,1.1,1.11,1.69,1.61.09.08.18.15.28.23,0,0,.07.06.12.09.06.04.25.19.31.23.29.21.58.42.89.61.63.41,1.29.76,1.97,1.1Z"/>
      </g>
    </g>
  </g>
</svg>